<?xml version="1.0" encoding="utf-8"?>
<!-- Generator: Adobe Illustrator 16.0.0, SVG Export Plug-In . SVG Version: 6.00 Build 0)  -->
<!DOCTYPE svg PUBLIC "-//W3C//DTD SVG 1.1//EN" "http://www.w3.org/Graphics/SVG/1.1/DTD/svg11.dtd" [
	<!ENTITY ns_extend "http://ns.adobe.com/Extensibility/1.0/">
	<!ENTITY ns_ai "http://ns.adobe.com/AdobeIllustrator/10.0/">
	<!ENTITY ns_graphs "http://ns.adobe.com/Graphs/1.0/">
	<!ENTITY ns_vars "http://ns.adobe.com/Variables/1.0/">
	<!ENTITY ns_imrep "http://ns.adobe.com/ImageReplacement/1.0/">
	<!ENTITY ns_sfw "http://ns.adobe.com/SaveForWeb/1.0/">
	<!ENTITY ns_custom "http://ns.adobe.com/GenericCustomNamespace/1.0/">
	<!ENTITY ns_adobe_xpath "http://ns.adobe.com/XPath/1.0/">
]>
<svg version="1.1" xmlns:x="&ns_extend;" xmlns:i="&ns_ai;" xmlns:graph="&ns_graphs;"
	 xmlns="http://www.w3.org/2000/svg" xmlns:xlink="http://www.w3.org/1999/xlink" x="0px" y="0px" width="2841.118px"
	 height="3162.692px" viewBox="0 0 2841.118 3162.692" enable-background="new 0 0 2841.118 3162.692" xml:space="preserve">
<metadata>
	<sfw  xmlns="&ns_sfw;">
		<slices></slices>
		<sliceSourceBounds  width="5459.388" height="5741.149" y="-3765.508" x="-1215.037" bottomLeftOrigin="true">
			</sliceSourceBounds>
	</sfw>
</metadata>
<g id="Your_Artwork">
</g>
<g id="Size_Templates">
	<g id="XS_1_">
		<path id="Mask" fill="#FFFFFF" stroke="#000000" stroke-width="0.5997" stroke-miterlimit="10" d="M2365.631,2930.14h-508.36
			l-2.527-26.711h513.428L2365.631,2930.14z M988.375,2903.429H474.947l2.54,26.711h508.361L988.375,2903.429z M2842.118,0.001
			v3162.691H1421.559H1V0.001h1420.559H2842.118z M1382.555,942.454c-179.453-79.299-202.803-322.312-178.896-424.958l40.428-175.67
			l0.02,0.004l-0.016-0.023l-0.004,0.019L402.061,148.294l-40.529,175.672c0,0-63.596,297.281-106.699,401.701
			C177.096,913.998,80.779,942.454,80.779,942.454s209.568,623.863,254.763,835.785
			c60.765,284.933,141.945,1151.901,141.945,1151.901h508.361c0,0,80.748-867.04,141.943-1151.901
			C1173.336,1566.238,1382.555,942.454,1382.555,942.454z M2762.34,942.454c0,0-96.318-28.457-174.055-216.787
			c-43.102-104.42-106.699-401.701-106.699-401.701l-40.529-175.672l-842.025,193.532l-0.004-0.019l-0.016,0.023l0.02-0.004
			l40.428,175.67c23.906,102.645,0.557,345.659-178.896,424.958c0,0,209.221,623.784,254.764,835.785
			c61.197,284.861,141.944,1151.901,141.944,1151.901h508.36c0,0,81.182-866.969,141.945-1151.901
			C2552.772,1566.317,2762.34,942.454,2762.34,942.454z"/>
		<text id="Title3" transform="matrix(-1 0 0 -1 731.6665 2911.1602)" fill="none" font-family="'Helvetica'" font-size="22.9">#DesignName</text>
		<text id="Title2_4_" transform="matrix(-1 0 0 -1 2111.4517 2911.1602)" fill="none" font-family="'Helvetica'" font-size="22.9">#DesignName</text>
		
			<text id="Title_9_" transform="matrix(0.9361 0.2128 -0.2217 0.9751 914.5649 332.0249)" fill="#FFFFFF" font-family="'FuturaLT-Bold'" font-size="36">#DesignName</text>
		<text id="Credits_8_" transform="matrix(0.9345 -0.2199 0.2291 0.9734 1674.9868 365.0698)"><tspan x="0" y="0" fill="#FFFFFF" font-family="'FuturaLT-Bold'" font-size="21">Artwork by...</tspan><tspan x="0" y="24" fill="#FFFFFF" font-family="'FuturaLT-Bold'" font-size="21">Design by...</tspan></text>
	</g>
	<path id="Background" stroke="#000000" stroke-miterlimit="10" d="M1419.752-0.5H-0.807v3162.692h1420.559h1420.559V-0.5H1419.752z
		 M1125.985,1777.738c-61.196,284.861-139.417,1125.189-139.417,1125.189H473.14c0,0-78.641-840.257-139.405-1125.189
		C288.541,1565.816,78.972,941.953,78.972,941.953s96.317-28.456,174.053-216.786c43.103-104.42,106.699-401.701,106.699-401.701
		l22.367-96.727l842.038,193.525l-22.277,96.732c-23.906,102.645-0.556,345.659,178.896,424.957
		C1380.748,941.953,1171.529,1565.737,1125.985,1777.738z M2505.77,1777.738c-60.765,284.933-139.405,1125.189-139.405,1125.189
		h-513.428c0,0-78.221-840.328-139.417-1125.189c-45.544-212.001-254.764-835.786-254.764-835.786
		c179.453-79.298,202.803-322.312,178.896-424.957l-22.277-96.743l842.039-193.525l22.365,96.738
		c0,0,63.597,297.281,106.699,401.701c77.736,188.33,174.054,216.786,174.054,216.786S2550.964,1565.816,2505.77,1777.738z"/>
</g>
<g id="Guides">
	<g id="Misc">
		<g id="Title">
			<g id="Version__x23__1_">
				<path fill="#FFFFFF" d="M1881.633,92.352v-16.6h30.4v75.4h-19.601v-58.8H1881.633z"/>
			</g>
			<g id="Version__x23_">
				<path fill="#FFFFFF" d="M1922.133,92.352v-16.6h30.4v75.4h-19.601v-58.8H1922.133z"/>
			</g>
			<g id="Version__x23__2_">
				<path fill="#FFFFFF" d="M1984.799,92.352v-16.6h30.4v75.4h-19.601v-58.8H1984.799z"/>
			</g>
			<g>
				<path fill="#FFFFFF" d="M1865.548,95.483c-1.789-1.523-3.794-2.733-6.014-3.628c-2.222-0.895-4.523-1.342-6.909-1.342
					c-0.929,0-1.873,0.134-2.833,0.397c-0.962,0.266-1.856,0.664-2.684,1.193c-0.83,0.531-1.509,1.178-2.038,1.938
					c-0.531,0.763-0.796,1.675-0.796,2.734c0,1.127,0.299,2.072,0.896,2.833c0.596,0.763,1.324,1.426,2.187,1.988
					c0.86,0.564,1.789,1.028,2.783,1.392c0.994,0.365,1.922,0.681,2.783,0.944l4.971,1.491c2.585,0.795,5.003,1.74,7.257,2.833
					c2.252,1.094,4.208,2.436,5.865,4.026c1.655,1.59,2.965,3.496,3.927,5.716c0.96,2.221,1.441,4.855,1.441,7.903
					c0,3.712-0.547,7.373-1.641,10.984c-1.094,3.613-3.131,6.678-6.113,9.195c-2.982,2.52-6.33,4.324-10.04,5.418
					c-3.713,1.093-7.456,1.64-11.233,1.64c-4.771,0-9.394-0.746-13.867-2.237s-8.633-3.594-12.476-6.312l8.35-15.706
					c2.451,2.122,5.103,3.943,7.953,5.467c2.849,1.525,5.965,2.286,9.344,2.286c1.127,0,2.253-0.149,3.38-0.447
					s2.138-0.746,3.032-1.342c0.895-0.597,1.623-1.375,2.188-2.336c0.562-0.959,0.845-2.103,0.845-3.429
					c0-1.392-0.415-2.551-1.243-3.479c-0.829-0.927-1.855-1.723-3.081-2.386c-1.228-0.662-2.52-1.193-3.877-1.59
					c-1.359-0.398-2.569-0.761-3.629-1.094c-3.049-0.86-5.814-1.772-8.3-2.733c-2.485-0.96-4.623-2.203-6.412-3.728
					c-1.789-1.523-3.165-3.445-4.125-5.766c-0.962-2.319-1.441-5.301-1.441-8.947c0-3.777,0.646-7.223,1.938-10.338
					c1.292-3.114,3.081-5.766,5.367-7.953c2.287-2.187,5.003-3.877,8.151-5.07c3.147-1.193,6.611-1.789,10.389-1.789
					c1.854,0,3.827,0.149,5.915,0.447c2.087,0.298,4.141,0.713,6.163,1.243c2.021,0.531,4.009,1.177,5.964,1.938
					c1.954,0.763,3.761,1.607,5.418,2.535L1865.548,95.483z"/>
			</g>
			<g>
				<path fill="#FFFFFF" d="M1975.039,130.769c1.524,0,2.968,0.286,4.334,0.857c1.364,0.572,2.556,1.366,3.571,2.381
					c1.016,1.017,1.81,2.207,2.382,3.572c0.571,1.366,0.856,2.81,0.856,4.333s-0.285,2.969-0.856,4.333
					c-0.572,1.366-1.366,2.541-2.382,3.524c-1.016,0.985-2.207,1.777-3.571,2.381c-1.366,0.603-2.81,0.905-4.334,0.905
					c-1.523,0-2.969-0.302-4.333-0.905c-1.366-0.604-2.557-1.396-3.572-2.381c-1.017-0.984-1.81-2.158-2.381-3.524
					c-0.571-1.365-0.857-2.81-0.857-4.333s0.286-2.967,0.857-4.333c0.571-1.365,1.364-2.555,2.381-3.572
					c1.016-1.015,2.206-1.81,3.572-2.381C1972.07,131.055,1973.515,130.769,1975.039,130.769z"/>
			</g>
			<path id="Bomb_L" fill="#E44999" d="M1047.298,69.122l-9.477-3.121l-3.984,12.088c-0.068-0.002-0.139-0.006-0.209-0.006
				c-24.289,0-43.98,19.69-43.98,43.981c0,8.993,2.703,17.352,7.336,24.318c-10.093-10.725-16.289-25.161-16.289-41.055
				c0-33.104,26.837-59.94,59.94-59.94c10.214,0,19.829,2.561,28.244,7.065C1051.515,55.155,1047.298,69.122,1047.298,69.122z"/>
			<path id="Bomb_R" fill="#E44999" d="M1081.406,60.795c-2.382-1.131-4.548-2.308-6.552-2.822
				c-17.777-4.571-21.299,13.214-21.278,13.216l11.229,3.702l-4.122,12.51c10.3,8.049,16.928,20.58,16.928,34.664
				c0,21.409-15.302,39.239-35.562,43.168c32.447-0.752,58.525-27.274,58.525-59.904
				C1100.575,88.395,1094.218,70.137,1081.406,60.795z"/>
			<path fill="#FFFFFF" d="M1644.358,57.811h53.195v20.584h-28.891v15.624h27.402v20.584h-27.402v16.12h28.891v20.584h-53.195
				V57.811z M1754.715,112.991l29.39,38.316h-30.257l-22.939-35.96h-0.248v35.96h-24.305V57.811h36.332
				c4.629,0,8.928,0.558,12.896,1.674c3.967,1.116,7.396,2.852,10.291,5.208c2.893,2.356,5.166,5.353,6.82,8.99
				c1.652,3.639,2.48,7.936,2.48,12.896c0,3.224-0.434,6.305-1.303,9.238c-0.867,2.936-2.17,5.58-3.906,7.936
				s-3.887,4.34-6.447,5.952C1760.958,111.316,1758.022,112.413,1754.715,112.991z M1749.879,88.066
				c0-2.561-0.518-4.607-1.549-6.138c-1.035-1.529-2.357-2.707-3.969-3.534c-1.611-0.825-3.41-1.364-5.395-1.612
				c-1.982-0.248-3.967-0.372-5.951-0.372h-2.355v23.312h2.355c1.984,0,3.969-0.124,5.951-0.372
				c1.984-0.248,3.783-0.785,5.395-1.612c1.611-0.826,2.934-2.003,3.969-3.534C1749.362,92.676,1749.879,90.63,1749.879,88.066z
				 M1176.887,57.811l-20.088,49.972l-18.972-49.972h-23.932l-15.872,93.496h24.18l7.812-53.816h0.248l21.452,53.816h9.672
				l22.444-53.816h0.248l6.82,53.816h24.304l-14.136-93.496H1176.887z M974.623,109.146c3.017,4.216,4.526,9.591,4.526,16.12
				c0,4.879-0.973,8.99-2.914,12.338c-1.943,3.348-4.485,6.036-7.626,8.06c-3.143,2.027-6.738,3.472-10.788,4.34
				c-4.052,0.868-8.227,1.302-12.524,1.302h-37.448V57.811h34.72c4.133,0,7.915,0.434,11.346,1.302
				c3.429,0.868,6.365,2.253,8.804,4.154c2.437,1.903,4.318,4.402,5.642,7.502c1.321,3.1,1.984,6.883,1.984,11.346
				c0,4.216-0.766,7.979-2.294,11.284c-1.531,3.308-4.197,5.912-7.998,7.812v0.248C966.749,102.369,971.604,104.931,974.623,109.146
				z M932.153,94.515h2.728c1.57,0,3.141-0.103,4.712-0.31c1.569-0.206,2.976-0.62,4.216-1.24c1.24-0.62,2.251-1.529,3.038-2.728
				c0.785-1.198,1.178-2.79,1.178-4.774c0-2.148-0.434-3.822-1.302-5.022c-0.868-1.197-1.984-2.108-3.348-2.728
				c-1.364-0.62-2.873-0.992-4.526-1.116c-1.655-0.124-3.307-0.186-4.96-0.186h-1.736V94.515z M954.597,122.787
				c0-2.81-0.663-4.917-1.984-6.324c-1.324-1.404-2.998-2.396-5.022-2.976c-2.027-0.578-4.197-0.868-6.51-0.868h-8.928v20.088h3.1
				c1.817,0,3.844-0.041,6.076-0.124c2.232-0.081,4.34-0.413,6.324-0.992c1.984-0.578,3.636-1.55,4.96-2.914
				C953.934,127.312,954.597,125.35,954.597,122.787z M1356.683,102.823c-2.068-1.984-4.508-3.658-7.316-5.022
				c-2.811-1.364-5.828-2.542-9.053-3.534l-6.199-1.86c-1.075-0.33-2.232-0.722-3.472-1.178c-1.24-0.453-2.398-1.033-3.472-1.736
				c-1.075-0.701-1.984-1.529-2.728-2.48c-0.744-0.949-1.116-2.127-1.116-3.534c0-1.321,0.33-2.458,0.992-3.41
				c0.661-0.95,1.507-1.755,2.542-2.417c1.033-0.662,2.148-1.157,3.348-1.489c1.197-0.329,2.375-0.496,3.534-0.496
				c2.976,0,5.847,0.558,8.618,1.674c2.77,1.116,5.27,2.625,7.502,4.526l9.672-18.848c-2.066-1.157-4.32-2.21-6.758-3.162
				c-2.439-0.949-4.92-1.755-7.439-2.418c-2.523-0.661-5.084-1.178-7.688-1.55c-2.604-0.372-5.065-0.558-7.378-0.558
				c-4.712,0-9.033,0.744-12.958,2.232c-3.927,1.488-7.316,3.596-10.168,6.324c-2.852,2.728-5.084,6.035-6.696,9.92
				c-1.612,3.887-2.418,8.184-2.418,12.896c0,4.547,0.599,8.267,1.798,11.16c1.198,2.895,2.914,5.291,5.146,7.192
				c2.232,1.902,4.898,3.453,7.998,4.65c3.1,1.199,6.551,2.337,10.354,3.41c1.322,0.415,2.831,0.868,4.526,1.364
				c1.693,0.496,3.305,1.159,4.836,1.984c1.528,0.828,2.809,1.819,3.844,2.976c1.033,1.159,1.55,2.604,1.55,4.34
				c0,1.654-0.353,3.081-1.054,4.278c-0.703,1.199-1.612,2.17-2.728,2.914c-1.116,0.744-2.377,1.302-3.782,1.674
				c-1.407,0.372-2.812,0.558-4.216,0.558c-4.216,0-8.103-0.949-11.656-2.852c-3.556-1.9-6.863-4.173-9.92-6.82l-10.416,19.592
				c4.793,3.391,9.982,6.014,15.562,7.874c5.58,1.86,11.346,2.79,17.298,2.79c4.712,0,9.381-0.682,14.012-2.046
				c4.629-1.364,8.805-3.615,12.523-6.758c3.721-3.141,6.262-6.963,7.627-11.47c1.363-4.505,2.045-9.071,2.045-13.702
				c0-3.801-0.6-7.087-1.797-9.858C1360.382,107.185,1358.748,104.807,1356.683,102.823z M1463.073,151.307h53.195v-20.584h-28.891
				v-16.12h27.402V94.019h-27.402V78.395h28.891V57.811h-53.195V151.307z M1286.811,109.146c3.017,4.216,4.526,9.591,4.526,16.12
				c0,4.879-0.973,8.99-2.914,12.338c-1.943,3.348-4.485,6.036-7.626,8.06c-3.143,2.027-6.738,3.472-10.788,4.34
				c-4.052,0.868-8.227,1.302-12.524,1.302h-37.448V57.811h34.72c4.133,0,7.915,0.434,11.346,1.302
				c3.429,0.868,6.365,2.253,8.804,4.154c2.437,1.903,4.318,4.402,5.642,7.502c1.321,3.1,1.984,6.883,1.984,11.346
				c0,4.216-0.766,7.979-2.294,11.284c-1.531,3.308-4.197,5.912-7.998,7.812v0.248
				C1278.937,102.369,1283.792,104.931,1286.811,109.146z M1244.341,94.515h2.728c1.57,0,3.141-0.103,4.712-0.31
				c1.569-0.206,2.976-0.62,4.216-1.24c1.24-0.62,2.251-1.529,3.038-2.728c0.785-1.198,1.178-2.79,1.178-4.774
				c0-2.148-0.434-3.822-1.302-5.022c-0.868-1.197-1.984-2.108-3.348-2.728c-1.364-0.62-2.873-0.992-4.526-1.116
				c-1.655-0.124-3.307-0.186-4.96-0.186h-1.736V94.515z M1266.785,122.787c0-2.81-0.663-4.917-1.984-6.324
				c-1.324-1.404-2.998-2.396-5.022-2.976c-2.027-0.578-4.197-0.868-6.51-0.868h-8.928v20.088h3.1c1.817,0,3.844-0.041,6.076-0.124
				c2.232-0.081,4.34-0.413,6.324-0.992c1.984-0.578,3.636-1.55,4.96-2.914C1266.122,127.312,1266.785,125.35,1266.785,122.787z
				 M1549.624,57.811h-24.305v93.496h53.443v-20.584h-29.139V57.811z M1428.85,93.895h-35.092V57.811h-24.305v93.496h24.305v-38.316
				h35.092v38.316h24.303V57.811h-24.303V93.895z M1609.143,57.811h-24.305v93.496h53.445v-20.584h-29.141V57.811z"/>
		</g>
		<g id="Cut_Zone_1_">
			<polygon opacity="0.4" fill="#E44A99" points="2842.294,2902.928 2842.29,2324.681 2429.292,2324.681 2368.171,2902.928 			"/>
			<polygon opacity="0.4" fill="#E44A99" points="1793.968,2324.681 1049.025,2324.681 988.375,2902.928 1854.744,2902.928 			"/>
			<polygon opacity="0.4" fill="#E44A99" points="474.947,2902.928 413.773,2324.681 -0.254,2324.681 -0.129,2902.928 			"/>
			<g>
				
					<text transform="matrix(1 -3.100000e-04 3.100000e-04 1 1198.4946 2639.9922)" fill="#888888" font-family="'ArialMT'" font-size="108">Cut Zone</text>
			</g>
			<g>
				
					<text transform="matrix(1 -3.100000e-04 3.100000e-04 1 2448.9634 2376.915)" fill="#888888" font-family="'ArialMT'" font-size="60">3XL</text>
			</g>
			<g>
				
					<text transform="matrix(1 -3.100000e-04 3.100000e-04 1 2444.9634 2458.915)" fill="#888888" font-family="'ArialMT'" font-size="60">2XL</text>
			</g>
			<g>
				
					<text transform="matrix(1 -3.100000e-04 3.100000e-04 1 2436.9829 2539.9102)" fill="#888888" font-family="'ArialMT'" font-size="60">XL</text>
			</g>
			<g>
				
					<text transform="matrix(1 -3.100000e-04 3.100000e-04 1 2431.9927 2627.9287)" fill="#888888" font-family="'ArialMT'" font-size="60">L</text>
			</g>
			<g>
				
					<text transform="matrix(1 -3.100000e-04 3.100000e-04 1 2419.686 2723.0713)" fill="#888888" font-family="'ArialMT'" font-size="60">M</text>
			</g>
			<g>
				
					<text transform="matrix(1 -3.100000e-04 3.100000e-04 1 2408.3325 2813.9053)" fill="#888888" font-family="'ArialMT'" font-size="60">S</text>
			</g>
			<g>
				
					<text transform="matrix(1 -3.100000e-04 3.100000e-04 1 2399.6567 2898.8271)" fill="#888888" font-family="'ArialMT'" font-size="60">XS</text>
			</g>
			<g>
				
					<text transform="matrix(1 -3.100000e-04 3.100000e-04 1 289.6558 2376.915)" fill="#888888" font-family="'ArialMT'" font-size="60">3XL</text>
			</g>
			<g>
				
					<text transform="matrix(1 -3.100000e-04 3.100000e-04 1 297.6558 2458.915)" fill="#888888" font-family="'ArialMT'" font-size="60">2XL</text>
			</g>
			<g>
				
					<text transform="matrix(1 -3.100000e-04 3.100000e-04 1 340.6714 2539.9102)" fill="#888888" font-family="'ArialMT'" font-size="60">XL</text>
			</g>
			<g>
				
					<text transform="matrix(1 -3.100000e-04 3.100000e-04 1 379.1792 2627.9287)" fill="#888888" font-family="'ArialMT'" font-size="60">L</text>
			</g>
			<g>
				
					<text transform="matrix(1 -3.100000e-04 3.100000e-04 1 377.3716 2723.0713)" fill="#888888" font-family="'ArialMT'" font-size="60">M</text>
			</g>
			<g>
				
					<text transform="matrix(1 -3.100000e-04 3.100000e-04 1 393.7632 2813.9053)" fill="#888888" font-family="'ArialMT'" font-size="60">S</text>
			</g>
			<g>
				
					<text transform="matrix(1 -3.100000e-04 3.100000e-04 1 369.7534 2898.8271)" fill="#888888" font-family="'ArialMT'" font-size="60">XS</text>
			</g>
		</g>
		<rect x="3041.659" y="82.674" fill="none" width="2309.664" height="4245.779"/>
		<text id="Guidelines" transform="matrix(1 0 0 1 3041.6587 154.5732)"><tspan x="0" y="0" fill="#FFFFFF" font-family="'Helvetica-Bold'" font-size="100">Bombsheller Leggings Checklist</tspan><tspan x="0" y="216" fill="#FFFFFF" font-family="'Helvetica'" font-size="90">Are you using the latest version of the template?  Check </tspan><tspan x="0" y="324" fill="#FFFFFF" font-family="'Helvetica'" font-size="90">at bombsheller.com/blog/leggings-template.</tspan><tspan x="0" y="540" fill="#FFFFFF" font-family="'Helvetica'" font-size="90">Are your graphics in the backmost layer, “Your Artwork”?</tspan><tspan x="0" y="756" fill="#FFFFFF" font-family="'Helvetica'" font-size="90">Are your raster images at least 300 PPI, &amp; embeded?  </tspan><tspan x="0" y="864" fill="#FFFFFF" font-family="'Helvetica'" font-size="90">For help, see: bombsheller.com/artists/adobe-illustrator-</tspan><tspan x="0" y="972" fill="#FFFFFF" font-family="'Helvetica'" font-size="90">tips.html</tspan><tspan x="0" y="1188" fill="#FFFFFF" font-family="'Helvetica'" font-size="90">Did you mind the Cut Zone?  Your design will get cropped </tspan><tspan x="0" y="1296" fill="#FFFFFF" font-family="'Helvetica'" font-size="90">along the ankle and inseam when converting to other </tspan><tspan x="0" y="1404" fill="#FFFFFF" font-family="'Helvetica'" font-size="90">sizes.</tspan><tspan x="0" y="1620" fill="#FFFFFF" font-family="'Helvetica'" font-size="90">Did you fill out the Design Info at the bottom of the tem</tspan><tspan x="2171.206" y="1620" fill="#FFFFFF" font-family="'Helvetica'" font-size="90">-</tspan><tspan x="0" y="1728" fill="#FFFFFF" font-family="'Helvetica'" font-size="90">plate according to the instructions?</tspan><tspan x="0" y="1944" fill="#FFFFFF" font-family="'Helvetica'" font-size="90">Did you rename the .ai file with this information? </tspan><tspan x="0" y="2052" fill="#FFFFFF" font-family="'Helvetica'" font-size="90">“DesignName-V1S11.1” (V is the version # of this design. </tspan><tspan x="0" y="2160" fill="#FFFFFF" font-family="'Helvetica'" font-size="90">Only change it if you’re resubmitting with edits. S is the </tspan><tspan x="0" y="2268" fill="#FFFFFF" font-family="'Helvetica'" font-size="90">template #.  If you’re reading this, it’s S11.1.</tspan><tspan x="0" y="2484" fill="#FFFFFF" font-family="'Helvetica'" font-size="90">If you answered YES to all of the question, then your </tspan><tspan x="0" y="2592" fill="#FFFFFF" font-family="'Helvetica'" font-size="90">ready to rock!  Submit your design here:  </tspan><tspan x="0" y="2700" fill="#FFFFFF" font-family="'Helvetica'" font-size="90"> </tspan><tspan x="0" y="2808" fill="#FFFFFF" font-family="'Helvetica-Bold'" font-size="90">http://bombsheller.com/artists/submit-designs.html</tspan><tspan x="100" y="2916" fill="#FFFFFF" font-family="'Helvetica'" font-size="90">    </tspan><tspan x="0" y="3024" fill="#FFFFFF" font-family="'Helvetica'" font-size="90">Well done; we’ll be in touch =)</tspan></text>
		<rect x="-101.284" y="3586.665" fill="none" width="1645.037" height="2153.483"/>
		<text id="Design_Info_Text" transform="matrix(1 0 0 1 -1.2842 3621.1768)"><tspan x="0" y="0" fill="#FFFFFF" font-family="'Helvetica'" font-size="48">Art Credit:  Who produced the original graphics you’re using?  Could be </tspan><tspan x="0" y="57.6" fill="#FFFFFF" font-family="'Helvetica'" font-size="48">you, Monet, or the graffiti artist whose mural you photographed.</tspan><tspan x="0" y="172.8" fill="#FFFFFF" font-family="'Helvetica'" font-size="48">Designer:  What do you go by? Could be a real name or pseudonym. It </tspan><tspan x="0" y="230.4" fill="#FFFFFF" font-family="'Helvetica'" font-size="48">will be shown on the site and on printed leggings.  Limited to alphanu</tspan><tspan x="1464.96" y="230.4" fill="#FFFFFF" font-family="'Helvetica'" font-size="48">-</tspan><tspan x="0" y="288" fill="#FFFFFF" font-family="'Helvetica'" font-size="48">merics, periods, dashes, and spaces.  This name is permanent.</tspan><tspan x="0" y="403.2" fill="#FFFFFF" font-family="'Helvetica'" font-size="48">DesignName:  The title of this leggings design. We may change it with</tspan><tspan x="1486.054" y="403.2" fill="#FFFFFF" font-family="'Helvetica'" font-size="48">-</tspan><tspan x="0" y="460.8" fill="#FFFFFF" font-family="'Helvetica'" font-size="48">out notice if the name is not unique or doesn&apos;t follow the CamelCase </tspan><tspan x="0" y="518.4" fill="#FFFFFF" font-family="'Helvetica'" font-size="48">convention.  Search the website to check for name availability. </tspan></text>
	</g>
	<g id="Sew_Lines">
		<path id="Seams_left" fill="none" stroke="#056295" stroke-width="2.3" stroke-miterlimit="10" stroke-dasharray="18,18" d="
			M1884.77,2902.717c-13.094-120.051-95.753-867.66-151.845-1128.76c-41.269-192.098-217.995-725.786-250.248-822.607
			c95.243-48.743,139.975-139.052,160.821-207.905c28.028-92.571,24.785-182.042,13.491-230.533l-22.184-96.71l806.85-185.438
			l22.358,96.605c3.019,14.1,64.559,300.312,107.633,404.665c61.517,149.035,135.49,202.404,168.438,219.717
			c-32.665,97.923-209.215,630.461-250.112,822.233c-55.692,261.148-138.701,1008.903-151.851,1128.943L1884.77,2902.717z"/>
		<path id="Seams_right" fill="none" stroke="#056295" stroke-width="2.3" stroke-miterlimit="10" stroke-dasharray="18,18" d="
			M504.996,2902.928c-13.148-120.04-96.158-867.796-151.85-1128.943c-40.897-191.772-217.448-724.31-250.112-822.233
			c32.947-17.313,106.92-70.682,168.437-219.717c43.062-104.321,104.577-390.388,107.63-404.65l22.565-96.562l807.496,185.769
			l-23.043,96.363c-11.284,48.45-14.527,137.921,13.501,230.492c20.847,68.853,65.578,159.162,160.821,207.905
			c-32.253,96.821-208.979,630.509-250.248,822.608c-56.092,261.099-138.751,1008.708-151.845,1128.759L504.996,2902.928z"/>
		<text transform="matrix(0.245 0.9695 -0.9695 0.245 2483.9829 311.0234)" fill="#888888" font-family="'ArialMT'" font-size="36">Ass Seam</text>
		
			<text transform="matrix(0.2184 -0.9759 0.9759 0.2184 316.8315 468.4863)" fill="#888888" font-family="'ArialMT'" font-size="36">Ass Seam</text>
		<text transform="matrix(0.0027 -1 1 0.0027 1617.0708 722.9189)" fill="#888888" font-family="'ArialMT'" font-size="36">Crotch Seam</text>
		<text transform="matrix(-0.0027 1 -1 -0.0027 1224.0474 512.8447)" fill="#888888" font-family="'ArialMT'" font-size="36">Crotch Seam</text>
		
			<line id="Cut_Zone" fill="none" stroke="#B9529F" stroke-width="1.243" stroke-miterlimit="10" stroke-dasharray="39.7116,19.8558" x1="413.773" y1="2324.681" x2="1049.025" y2="2324.681"/>
		
			<line id="Cut_Zone_2_" fill="none" stroke="#B9529F" stroke-width="1.243" stroke-miterlimit="10" stroke-dasharray="39.7116,19.8558" x1="1793.827" y1="2324.681" x2="2429.079" y2="2324.681"/>
	</g>
	<g id="Anatomical_Labels_1_">
		
			<line id="Outer_Leg_Line_1_" fill="none" stroke="#B9529F" stroke-width="2.2418" stroke-miterlimit="10" stroke-dasharray="71.6224,35.8112" x1="2111.452" y1="2902.822" x2="2111.452" y2="315.883"/>
		
			<line id="Outer_Leg_Line" fill="none" stroke="#B9529F" stroke-width="2.2418" stroke-miterlimit="10" stroke-dasharray="71.6239,35.8119" x1="731.667" y1="2902.928" x2="731.667" y2="315.865"/>
		<g>
			<text transform="matrix(1 -0.0014 0.0014 1 2013.8667 2990.8604)" fill="#888888" font-family="'ArialMT'" font-size="54">Left Leg</text>
		</g>
		<g>
			
				<text transform="matrix(1 -2.500000e-04 2.500000e-04 1 2158.3462 1540.7695)" fill="#888888" font-family="'ArialMT'" font-size="54">Back</text>
		</g>
		<g>
			
				<text transform="matrix(1 -2.500000e-04 2.500000e-04 1 1941.5151 1540.8232)" fill="#888888" font-family="'ArialMT'" font-size="54">Front</text>
		</g>
		<g>
			
				<text transform="matrix(1 -3.100000e-04 3.100000e-04 1 616.1558 2990.7197)" fill="#888888" font-family="'ArialMT'" font-size="54">Right Leg</text>
		</g>
		<g>
			
				<text transform="matrix(1 -2.500000e-04 2.500000e-04 1 564.7231 1540.7695)" fill="#888888" font-family="'ArialMT'" font-size="54">Back</text>
		</g>
		<g>
			
				<text transform="matrix(1 -2.500000e-04 2.500000e-04 1 775.5679 1540.8232)" fill="#888888" font-family="'ArialMT'" font-size="54">Front</text>
		</g>
	</g>
</g>
<g id="Design_Info">
	<g id="Name_Block">
		<rect x="9" y="3170.191" fill="#E44999" width="2824.118" height="253.456"/>
		<path d="M2825.118,3178.191v237.456H17v-237.456H2825.118 M2841.118,3162.191H1v269.456h2840.118V3162.191L2841.118,3162.191z"/>
	</g>
	<text id="_x2A_Note" transform="matrix(1 0 0 1 34.9165 3395.1406)" font-family="'MyriadPro-Regular'" font-size="24">*See instructions below</text>
	<text id="Title_7_" transform="matrix(1 0 0 1 34.9165 3345.6406)" font-family="'MyriadPro-Regular'" font-size="48">#DesignName</text>
	<text id="Credits_7_" transform="matrix(1 0 0 1 34.9165 3230.3398)"><tspan x="0" y="0" font-family="'MyriadPro-Regular'" font-size="48">Artwork by... </tspan><tspan x="0" y="57.6" font-family="'MyriadPro-Regular'" font-size="48">Design by...</tspan></text>
</g>
<g id="svg2">
</g>
</svg>
